<?xml version="1.0" encoding="utf-8" ?>
<!-- Generator: Assembly 1.0 - http://assemblyapp.co -->
<svg version="1.1" xmlns="http://www.w3.org/2000/svg" xmlns:xlink="http://www.w3.org/1999/xlink" width="300" height="300" viewBox="0 0 300 300">
	<rect x="0" y="0" width="300" height="300" fill="#ffffff" />
	<g id="widget" transform="matrix(1,0,0,1,150,150)">
		<path d="M3.56173,65.1303 L-11.2095,29.3163 L-26.0633,65.1303 Z" fill="#000000" fill-opacity="1" />
		<path d="M17.8542,65.1303 L5.92342,36.2033 L-6.07395,65.1303 Z" fill="#000000" fill-opacity="1" />
		<path d="M22.9596,15.8197 L22.8649,-25.0569 L50.2803,5.30247 Z" fill="#bd2fa8" fill-opacity="1" />
		<path d="M-31.5531,15.8197 L-31.6226,-25.0569 L-58.9158,5.41228 Z" fill="#bd2fa8" fill-opacity="1" />
		<path d="M22.8649,55.605 L3.56173,55.605 L3.56173,-55.605 L22.8649,-55.605 L22.8649,55.605 Z" fill="#bebebe" fill-opacity="1" />
		<path d="M3.56173,55.605 L-31.5531,55.605 L-31.5531,-55.605 L3.56173,-55.605 L3.56173,55.605 Z" fill="#8a8a8a" fill-opacity="1" />
		<path d="M10.97,-25.4794 C10.97,-17.2987 4.33819,-10.6669 -3.84253,-10.6669 C-12.0232,-10.6669 -18.655,-17.2987 -18.655,-25.4794 C-18.655,-33.6601 -12.0232,-40.2919 -3.84253,-40.2919 C4.33819,-40.2919 10.97,-33.6601 10.97,-25.4794 Z" fill="#8c2d89" fill-opacity="1" />
		<path d="M8.12153,-25.4794 C8.12153,-18.8718 2.76504,-13.5153 -3.84253,-13.5153 C-10.4501,-13.5153 -15.8066,-18.8718 -15.8066,-25.4794 C-15.8066,-32.0869 -10.4501,-37.4434 -3.84253,-37.4434 C2.76504,-37.4434 8.12153,-32.0869 8.12153,-25.4794 Z" fill="#ffffff" fill-opacity="1" />
		<path d="M-1.93297,-55.605 L-31.558,-55.605 L-31.558,-55.605 C-31.558,-78.1533 -18.2747,-96.4816 -1.93297,-96.4816 L-1.93297,-96.4816 L-1.93297,-55.605 Z" fill="#c972c7" fill-opacity="1" />
		<path d="M-1.92989,-55.605 L22.8944,-55.605 L22.8944,-55.605 C22.8944,-78.1533 11.7637,-96.4816 -1.92989,-96.4816 L-1.92989,-96.4816 L-1.92989,-55.605 Z" fill="#8c2d89" fill-opacity="1" />
		<path d="M-11.5533,79.5938 C-11.5533,71.6059 -8.1697,65.1303 -3.99579,65.1303 C0.178114,65.1303 3.56173,71.6059 3.56173,79.5938 C3.56173,87.5818 0.178114,94.0573 -3.99579,94.0573 C-8.1697,94.0573 -11.5533,87.5818 -11.5533,79.5938 Z" fill="#daa95d" fill-opacity="1" />
		<path d="M2.40183,77.1284 C2.40183,83.2165 -0.462485,88.1519 -3.99579,88.1519 C-7.5291,88.1519 -10.3934,83.2165 -10.3934,77.1284 C-10.3934,71.0402 -7.5291,66.1048 -3.99579,66.1048 C-0.462485,66.1048 2.40183,71.0402 2.40183,77.1284 Z" fill="#da7d5d" fill-opacity="1" />
		<path d="M0.215482,75.1974 C0.215482,79.6111 -1.66997,83.1892 -3.99579,83.1892 C-6.32162,83.1892 -8.20707,79.6111 -8.20707,75.1974 C-8.20707,70.7836 -6.32162,67.2055 -3.99579,67.2055 C-1.66997,67.2055 0.215482,70.7836 0.215482,75.1974 Z" fill="#fdf4af" fill-opacity="1" />
	</g>
</svg>