<?xml version="1.0" encoding="utf-8" ?>
<!-- Generator: Assembly 1.0 - http://assemblyapp.co -->
<svg version="1.1" xmlns="http://www.w3.org/2000/svg" xmlns:xlink="http://www.w3.org/1999/xlink" width="300" height="300" viewBox="0 0 300 300">
	<g id="widget" transform="matrix(1,0,0,1,150,150)">
		<path d="M39.0437,-40.7303 L19.7353,-53.9096 L19.7353,-53.9096 C26.2159,-63.404 40.1411,-65.2121 50.7919,-57.9422 L50.7919,-57.9422 L39.0437,-40.7303 Z" fill="#8a8a8a" fill-opacity="1" />
		<path d="M38.0727,-41.5882 L55.1274,-28.7983 L55.1274,-28.7983 C61.9724,-37.9257 59.8892,-51.0796 50.4815,-58.1347 L50.4815,-58.1347 L38.0727,-41.5882 Z" fill="#8a8a8a" fill-opacity="1" />
		<path d="M-24.9348,83.0273 L-60.2331,57.7454 L20.0721,-54.3758 L55.3704,-29.0939 L-24.9348,83.0273 Z" fill="#8a8a8a" fill-opacity="1" />
		<path d="M-22.8133,120.162 C-34.0826,136.219 -59.653,137.702 -79.9263,123.474 C-100.2,109.246 -107.499,84.6943 -96.2296,68.637 C-84.9603,52.5798 -59.3899,51.097 -39.1166,65.3252 C-18.8433,79.5534 -11.5441,104.105 -22.8133,120.162 Z" fill="#8a8a8a" fill-opacity="1" />
		<path d="M-70.4185,139.271 L-101.145,114.164 L-76.0372,83.4377 L-45.3113,108.545 L-70.4185,139.271 Z" fill="#ffffff" fill-opacity="1" />
		<path d="M44.8718,-39.8673 C44.1671,-35.8566 40.3446,-33.1766 36.3339,-33.8812 C32.3232,-34.5859 29.6432,-38.4084 30.3478,-42.4191 C31.0525,-46.4298 34.875,-49.1098 38.8857,-48.4052 C42.8964,-47.7005 45.5764,-43.878 44.8718,-39.8673 Z" fill="#ffffff" fill-opacity="1" />
		<path d="M-17.7795,-11.4323 L-39.7475,18.3305 L-83.7411,-14.1412 L-61.7732,-43.904 L-17.7795,-11.4323 Z" fill="#c897bf" fill-opacity="1" />
		<path d="M-67.1324,-42.2821 L-83.1351,-20.4516 C-84.5414,-18.5332 -85.8769,-17.1731 -86.144,-17.3689 L-89.2315,-19.6322 C-89.5032,-19.8314 -88.5792,-21.5439 -87.1971,-23.4293 L-71.1944,-45.2598 C-69.7881,-47.1782 -68.4526,-48.5383 -68.1855,-48.3425 L-65.0933,-46.0758 C-64.8552,-45.8504 -65.7503,-44.1675 -67.1324,-42.2821 Z" fill="#bebebe" fill-opacity="1" />
		<path d="M-72.7209,-46.6021 L-88.7054,-25.4932 C-90.1101,-23.6382 -91.446,-22.335 -91.715,-22.5386 L-94.8249,-24.8936 C-95.0986,-25.1009 -94.1774,-26.7685 -92.7969,-28.5915 L-76.8124,-49.7004 C-75.4077,-51.5554 -74.0718,-52.8586 -73.8028,-52.6549 L-70.6882,-50.2964 C-70.4481,-50.0643 -71.3404,-48.4251 -72.7209,-46.6021 Z" fill="#bebebe" fill-opacity="1" />
		<path d="M-78.3603,-51.8862 L-94.9122,-30.2545 C-96.3668,-28.3535 -98.4763,-27.5773 -99.6357,-28.4644 L-113.039,-38.7204 C-114.219,-39.623 -113.976,-41.8794 -112.546,-43.7476 L-95.9944,-65.3793 C-94.5398,-67.2803 -92.4303,-68.0565 -91.2709,-67.1694 L-77.847,-56.8979 C-76.7331,-55.9936 -76.9308,-53.7544 -78.3603,-51.8862 Z" fill="#a92476" fill-opacity="1" />
		<path d="M78.2874,57.8845 L56.5271,88.0887 L3.64352,49.9895 L25.4037,19.7852 L78.2874,57.8845 Z" fill="#c897bf" fill-opacity="1" />
		<path d="M58.8323,90.3743 L98.7955,95.5717 L81.0762,59.3204 Z" fill="#a92476" fill-opacity="1" />
		<path d="M89.4971,94.2678 L99.3828,95.8226 L94.5243,87.0617 Z" fill="#4d4d4d" fill-opacity="1" />
		<path d="M-73.2776,-12.8143 L-71.3483,-15.3434 L-35.1291,12.2856 L-37.0584,14.8148 Z" fill="#ffffff" fill-opacity="1" />
		<path d="M6.28941,46.2654 L8.15349,43.7843 L50.8014,75.8263 L48.9373,78.3074 Z" fill="#ffffff" fill-opacity="1" />
	</g>
</svg>