<?xml version="1.0" encoding="utf-8" ?>
<!-- Generator: Assembly 1.0 - http://assemblyapp.co -->
<svg version="1.1" xmlns="http://www.w3.org/2000/svg" xmlns:xlink="http://www.w3.org/1999/xlink" width="300" height="300" viewBox="0 0 300 300">
	<g id="widget" transform="matrix(1,0,0,1,150,150)">
		<path d="M77.8126,67.2652 L-77.8126,67.2652 C-91.4888,67.2652 -102.335,59.9807 -102.335,51.1463 L-102.335,-50.9913 C-102.335,-59.9807 -91.253,-67.1102 -77.8126,-67.1102 L77.8126,-67.1102 C91.4888,-67.1102 102.335,-59.8257 102.335,-50.9913 L102.335,51.3013 C102.1,59.9807 91.253,67.2652 77.8126,67.2652 Z" fill="#7f236f" fill-opacity="1" stroke-width="0.59867" stroke="#4d4d4d" stroke-linecap="square" stroke-linejoin="miter" />
		<path d="M84.9226,48.8263 L-84.9226,48.8263 L-84.9226,-48.8263 L84.9226,-48.8263 L84.9226,48.8263 Z" fill="#ffffff" fill-opacity="1" stroke-width="0.687361" stroke="#bebebe" stroke-linecap="round" stroke-linejoin="round" />
		<path d="M50.5528,92.9683 L-50.5528,92.9683 L-50.5528,77.4484 L50.5528,77.4484 L50.5528,92.9683 Z" fill="#4d4d4d" fill-opacity="1" />
		<path d="M63.3143,97.5928 L-63.3143,97.5928 L-63.3143,92.9683 L63.3143,92.9683 L63.3143,97.5928 Z" fill="#4d4d4d" fill-opacity="1" stroke-width="0.332594" stroke="#bebebe" stroke-linecap="square" stroke-linejoin="miter" />
		<path d="M-35.2639,-23.153 C-35.2639,-13.6666 -42.9542,-5.97625 -52.4406,-5.97625 C-61.9271,-5.97625 -69.6174,-13.6666 -69.6174,-23.153 C-69.6174,-32.6395 -61.9271,-40.3298 -52.4406,-40.3298 C-42.9542,-40.3298 -35.2639,-32.6395 -35.2639,-23.153 Z" fill="#000000" fill-opacity="1" />
		<path d="M8.88178e-16,62.5225 C-2.18457,62.5225 -3.95552,60.7516 -3.95552,58.567 C-3.95552,56.3824 -2.18457,54.6115 0,54.6115 C2.18457,54.6115 3.95552,56.3824 3.95552,58.567 C3.95552,60.7516 2.18457,62.5225 8.88178e-16,62.5225 Z" fill="#ffffff" fill-opacity="1" stroke-width="0.199557" stroke="#bebebe" stroke-linecap="square" stroke-linejoin="miter" />
		<path d="M3.68083,-58.7915 C3.68083,-56.7586 2.03287,-55.1107 0,-55.1107 C-2.03287,-55.1107 -3.68083,-56.7586 -3.68083,-58.7915 C-3.68083,-60.8244 -2.03287,-62.4723 0,-62.4723 C2.03287,-62.4723 3.68083,-60.8244 3.68083,-58.7915 Z" fill="#4d4d4d" fill-opacity="1" />
		<path d="M-54.7931,-22.2506 L-51.5382,-22.2506 L-51.5382,-5.97625 L-54.7931,-5.97625 Z" fill="#ffffff" fill-opacity="1" />
		<path d="M-33.5815,-16.4888 L-30.3266,-16.4888 L-30.3266,-0.214405 L-33.5815,-0.214405 Z" fill="#ffffff" fill-opacity="1" />
		<path d="M-34.8531,-24.7805 L-34.8531,-21.5256 L-54.7931,-21.5256 L-54.7931,-24.7805 Z" fill="#ffffff" fill-opacity="1" />
		<path d="M-51.5382,-21.5256 L-35.2639,-21.5256 L-35.2639,-21.5256 C-35.2639,-12.5483 -42.561,-5.25121 -51.5382,-5.25121 L-51.5382,-5.25121 L-51.5382,-21.5256 Z" fill="#7f236f" fill-opacity="1" />
		<path d="M-16.0495,35.4305 L-16.0495,30.1904 L-73.5967,30.1904 L-73.5967,35.4305 L-16.0495,35.4305 Z M-16.0495,24.9503 L-16.0495,19.7102 L-73.5967,19.7102 L-73.5967,24.9503 L-16.0495,24.9503 Z M-16.0495,14.47 L-16.0495,9.22992 L-73.5967,9.22992 L-73.5967,14.47 L-16.0495,14.47 Z" fill="#bebebe" fill-opacity="1" />
		<path d="M6.45612,-43.9976 L10.5301,-43.9976 L10.5301,14.144 L6.45612,14.144 Z" fill="#4d4d4d" fill-opacity="1" />
		<path d="M68.0772,11.4784 L68.0772,14.144 L10.5301,14.144 L10.5301,11.4784 Z" fill="#4d4d4d" fill-opacity="1" />
		<path d="M17.487,-25.6386 L23.5748,-25.6386 L23.5748,11.4784 L17.487,11.4784 Z" fill="#b87eae" fill-opacity="1" />
		<path d="M30.7614,-19.2399 L36.8493,-19.2399 L36.8493,11.4784 L30.7614,11.4784 Z" fill="#7f236f" fill-opacity="1" />
		<path d="M45.3126,-14.7222 L50.5528,-14.7222 L50.5528,11.4784 L45.3126,11.4784 Z" fill="#b87eae" fill-opacity="1" />
		<path d="M58.0742,-9.59595 L63.3143,-9.59595 L63.3143,11.4784 L58.0742,11.4784 Z" fill="#7f236f" fill-opacity="1" />
		<path d="M50.3813,18.7045 L50.3813,21.919 L24.2702,21.919 L24.2702,18.7045 Z" fill="#bebebe" fill-opacity="1" />
		<path d="M-1.62744,-26.7078 L1.62744,-26.7078 L1.62744,-3.14586 L-1.62744,-3.14586 Z" fill="#bebebe" fill-opacity="1" />
		<path d="M24.53,-33.2027 C24.53,-32.4667 23.9333,-31.8699 23.1973,-31.8699 C22.4612,-31.8699 21.8645,-32.4667 21.8645,-33.2027 C21.8645,-33.9388 22.4612,-34.5355 23.1973,-34.5355 C23.9333,-34.5355 24.53,-33.9388 24.53,-33.2027 Z" fill="#bebebe" fill-opacity="1" />
		<path d="M33.8054,-29.4363 C34.5414,-29.4363 35.1381,-28.8396 35.1381,-28.1035 C35.1381,-27.3674 34.5414,-26.7707 33.8054,-26.7707 C33.0693,-26.7707 32.4726,-27.3674 32.4726,-28.1035 C32.4726,-28.8396 33.0693,-29.4363 33.8054,-29.4363 Z" fill="#bebebe" fill-opacity="1" />
		<path d="M49.2655,-22.8853 C49.2655,-22.1492 48.6688,-21.5525 47.9327,-21.5525 C47.1966,-21.5525 46.5999,-22.1492 46.5999,-22.8853 C46.5999,-23.6214 47.1966,-24.2181 47.9327,-24.2181 C48.6688,-24.2181 49.2655,-23.6214 49.2655,-22.8853 Z" fill="#bebebe" fill-opacity="1" />
		<path d="M62.652,-15.2751 C62.652,-14.5391 62.0553,-13.9423 61.3192,-13.9423 C60.5831,-13.9423 59.9864,-14.5391 59.9864,-15.2751 C59.9864,-16.0112 60.5831,-16.6079 61.3192,-16.6079 C62.0553,-16.6079 62.652,-16.0112 62.652,-15.2751 Z" fill="#bebebe" fill-opacity="1" />
		<path d="M13.2789,-41.2285 L14.0162,-41.9659 L21.6322,-34.3498 L20.8949,-33.6125 Z" fill="#000000" fill-opacity="1" />
		<path d="M25.3565,-31.3565 L25.8065,-32.136 L31.2642,-28.985 L30.8142,-28.2055 Z" fill="#000000" fill-opacity="1" />
		<path d="M35.4313,-26.3676 L35.7174,-27.2804 L44.9063,-24.4002 L44.6202,-23.4874 Z" fill="#000000" fill-opacity="1" />
		<path d="M49.7722,-21.3924 L50.2961,-22.2998 L59.9864,-16.7051 L59.4625,-15.7977 Z" fill="#000000" fill-opacity="1" />
	</g>
</svg>